<svg id="visual" viewBox="0 0 900 200" width="900" height="200" xmlns="http://www.w3.org/2000/svg" xmlns:xlink="http://www.w3.org/1999/xlink" version="1.1"><rect width="900" height="200" fill="#001422"></rect><g><g transform="translate(247 72)"><path d="M0 -7.6L6.6 -3.8L6.6 3.8L0 7.6L-6.6 3.8L-6.6 -3.8Z" fill="#103241"></path></g><g transform="translate(469 185)"><path d="M0 0L0 0L0 0L0 0L0 0L0 0Z" fill="#103241"></path></g><g transform="translate(184 185)"><path d="M0 -1L0.9 -0.5L0.9 0.5L0 1L-0.9 0.5L-0.9 -0.5Z" fill="#103241"></path></g><g transform="translate(332 147)"><path d="M0 -4L3.5 -2L3.5 2L0 4L-3.5 2L-3.5 -2Z" fill="#103241"></path></g><g transform="translate(201 189)"><path d="M0 -6L5.2 -3L5.2 3L0 6L-5.2 3L-5.2 -3Z" fill="#103241"></path></g><g transform="translate(229 128)"><path d="M0 -5L4.3 -2.5L4.3 2.5L0 5L-4.3 2.5L-4.3 -2.5Z" fill="#103241"></path></g><g transform="translate(588 48)"><path d="M0 -1L0.9 -0.5L0.9 0.5L0 1L-0.9 0.5L-0.9 -0.5Z" fill="#103241"></path></g><g transform="translate(53 183)"><path d="M0 0L0 0L0 0L0 0L0 0L0 0Z" fill="#103241"></path></g><g transform="translate(135 56)"><path d="M0 -3L2.6 -1.5L2.6 1.5L0 3L-2.6 1.5L-2.6 -1.5Z" fill="#103241"></path></g><g transform="translate(684 78)"><path d="M0 0L0 0L0 0L0 0L0 0L0 0Z" fill="#103241"></path></g><g transform="translate(724 132)"><path d="M0 -3L2.6 -1.5L2.6 1.5L0 3L-2.6 1.5L-2.6 -1.5Z" fill="#103241"></path></g><g transform="translate(867 35)"><path d="M0 -2L1.7 -1L1.7 1L0 2L-1.7 1L-1.7 -1Z" fill="#103241"></path></g><g transform="translate(761 105)"><path d="M0 0L0 0L0 0L0 0L0 0L0 0Z" fill="#103241"></path></g><g transform="translate(499 99)"><path d="M0 -1L0.9 -0.5L0.9 0.5L0 1L-0.9 0.5L-0.9 -0.5Z" fill="#103241"></path></g><g transform="translate(234 40)"><path d="M0 -1L0.9 -0.5L0.9 0.5L0 1L-0.9 0.5L-0.9 -0.5Z" fill="#103241"></path></g><g transform="translate(762 10)"><path d="M0 -4L3.5 -2L3.5 2L0 4L-3.5 2L-3.5 -2Z" fill="#103241"></path></g><g transform="translate(90 159)"><path d="M0 -5L4.3 -2.5L4.3 2.5L0 5L-4.3 2.5L-4.3 -2.5Z" fill="#103241"></path></g><g transform="translate(625 22)"><path d="M0 -5L4.3 -2.5L4.3 2.5L0 5L-4.3 2.5L-4.3 -2.5Z" fill="#103241"></path></g><g transform="translate(833 151)"><path d="M0 -3L2.6 -1.5L2.6 1.5L0 3L-2.6 1.5L-2.6 -1.5Z" fill="#103241"></path></g><g transform="translate(113 100)"><path d="M0 -4L3.5 -2L3.5 2L0 4L-3.5 2L-3.5 -2Z" fill="#103241"></path></g><g transform="translate(204 102)"><path d="M0 -1L0.9 -0.5L0.9 0.5L0 1L-0.9 0.5L-0.9 -0.5Z" fill="#103241"></path></g><g transform="translate(187 136)"><path d="M0 -1L0.9 -0.5L0.9 0.5L0 1L-0.9 0.5L-0.9 -0.5Z" fill="#103241"></path></g><g transform="translate(649 122)"><path d="M0 -5L4.3 -2.5L4.3 2.5L0 5L-4.3 2.5L-4.3 -2.5Z" fill="#103241"></path></g><g transform="translate(497 165)"><path d="M0 -2L1.7 -1L1.7 1L0 2L-1.7 1L-1.7 -1Z" fill="#103241"></path></g><g transform="translate(622 157)"><path d="M0 -3L2.6 -1.5L2.6 1.5L0 3L-2.6 1.5L-2.6 -1.5Z" fill="#103241"></path></g><g transform="translate(762 182)"><path d="M0 -2L1.7 -1L1.7 1L0 2L-1.7 1L-1.7 -1Z" fill="#103241"></path></g><g transform="translate(307 99)"><path d="M0 -3L2.6 -1.5L2.6 1.5L0 3L-2.6 1.5L-2.6 -1.5Z" fill="#103241"></path></g><g transform="translate(791 172)"><path d="M0 -5L4.3 -2.5L4.3 2.5L0 5L-4.3 2.5L-4.3 -2.5Z" fill="#103241"></path></g><g transform="translate(395 91)"><path d="M0 -5L4.3 -2.5L4.3 2.5L0 5L-4.3 2.5L-4.3 -2.5Z" fill="#103241"></path></g><g transform="translate(44 163)"><path d="M0 -4L3.5 -2L3.5 2L0 4L-3.5 2L-3.5 -2Z" fill="#103241"></path></g><g transform="translate(176 154)"><path d="M0 -1L0.9 -0.5L0.9 0.5L0 1L-0.9 0.5L-0.9 -0.5Z" fill="#103241"></path></g><g transform="translate(742 131)"><path d="M0 -1L0.9 -0.5L0.9 0.5L0 1L-0.9 0.5L-0.9 -0.5Z" fill="#103241"></path></g><g transform="translate(592 104)"><path d="M0 -6L5.2 -3L5.2 3L0 6L-5.2 3L-5.2 -3Z" fill="#103241"></path></g><g transform="translate(318 28)"><path d="M0 -1L0.9 -0.5L0.9 0.5L0 1L-0.9 0.5L-0.9 -0.5Z" fill="#103241"></path></g><g transform="translate(383 179)"><path d="M0 -2L1.7 -1L1.7 1L0 2L-1.7 1L-1.7 -1Z" fill="#103241"></path></g><g transform="translate(85 41)"><path d="M0 -6L5.2 -3L5.2 3L0 6L-5.2 3L-5.2 -3Z" fill="#103241"></path></g><g transform="translate(426 114)"><path d="M0 -4L3.5 -2L3.5 2L0 4L-3.5 2L-3.5 -2Z" fill="#103241"></path></g><g transform="translate(662 80)"><path d="M0 -5L4.3 -2.5L4.3 2.5L0 5L-4.3 2.5L-4.3 -2.5Z" fill="#103241"></path></g><g transform="translate(725 188)"><path d="M0 -3L2.6 -1.5L2.6 1.5L0 3L-2.6 1.5L-2.6 -1.5Z" fill="#103241"></path></g><g transform="translate(225 7)"><path d="M0 0L0 0L0 0L0 0L0 0L0 0Z" fill="#103241"></path></g><g transform="translate(592 148)"><path d="M0 -2L1.7 -1L1.7 1L0 2L-1.7 1L-1.7 -1Z" fill="#103241"></path></g><g transform="translate(131 12)"><path d="M0 -4L3.5 -2L3.5 2L0 4L-3.5 2L-3.5 -2Z" fill="#103241"></path></g><g transform="translate(866 129)"><path d="M0 -5L4.3 -2.5L4.3 2.5L0 5L-4.3 2.5L-4.3 -2.5Z" fill="#103241"></path></g><g transform="translate(561 81)"><path d="M0 -6L5.2 -3L5.2 3L0 6L-5.2 3L-5.2 -3Z" fill="#103241"></path></g><g transform="translate(281 123)"><path d="M0 -2L1.7 -1L1.7 1L0 2L-1.7 1L-1.7 -1Z" fill="#103241"></path></g><g transform="translate(592 176)"><path d="M0 -6L5.2 -3L5.2 3L0 6L-5.2 3L-5.2 -3Z" fill="#103241"></path></g><g transform="translate(882 160)"><path d="M0 -6L5.2 -3L5.2 3L0 6L-5.2 3L-5.2 -3Z" fill="#103241"></path></g><g transform="translate(491 190)"><path d="M0 -6L5.2 -3L5.2 3L0 6L-5.2 3L-5.2 -3Z" fill="#103241"></path></g><g transform="translate(167 187)"><path d="M0 0L0 0L0 0L0 0L0 0L0 0Z" fill="#103241"></path></g><g transform="translate(693 166)"><path d="M0 -3L2.6 -1.5L2.6 1.5L0 3L-2.6 1.5L-2.6 -1.5Z" fill="#103241"></path></g><g transform="translate(421 16)"><path d="M0 -4L3.5 -2L3.5 2L0 4L-3.5 2L-3.5 -2Z" fill="#103241"></path></g><g transform="translate(825 120)"><path d="M0 -1L0.9 -0.5L0.9 0.5L0 1L-0.9 0.5L-0.9 -0.5Z" fill="#103241"></path></g><g transform="translate(646 9)"><path d="M0 -2L1.7 -1L1.7 1L0 2L-1.7 1L-1.7 -1Z" fill="#103241"></path></g><g transform="translate(445 118)"><path d="M0 -6L5.2 -3L5.2 3L0 6L-5.2 3L-5.2 -3Z" fill="#103241"></path></g><g transform="translate(14 56)"><path d="M0 -4L3.5 -2L3.5 2L0 4L-3.5 2L-3.5 -2Z" fill="#103241"></path></g><g transform="translate(178 21)"><path d="M0 -1L0.9 -0.5L0.9 0.5L0 1L-0.9 0.5L-0.9 -0.5Z" fill="#103241"></path></g><g transform="translate(647 69)"><path d="M0 -5L4.3 -2.5L4.3 2.5L0 5L-4.3 2.5L-4.3 -2.5Z" fill="#103241"></path></g><g transform="translate(813 169)"><path d="M0 -3L2.6 -1.5L2.6 1.5L0 3L-2.6 1.5L-2.6 -1.5Z" fill="#103241"></path></g><g transform="translate(564 158)"><path d="M0 -1L0.9 -0.5L0.9 0.5L0 1L-0.9 0.5L-0.9 -0.5Z" fill="#103241"></path></g><g transform="translate(886 102)"><path d="M0 -5L4.3 -2.5L4.3 2.5L0 5L-4.3 2.5L-4.3 -2.5Z" fill="#103241"></path></g><g transform="translate(296 50)"><path d="M0 -5L4.3 -2.5L4.3 2.5L0 5L-4.3 2.5L-4.3 -2.5Z" fill="#103241"></path></g><g transform="translate(357 51)"><path d="M0 0L0 0L0 0L0 0L0 0L0 0Z" fill="#103241"></path></g><g transform="translate(500 4)"><path d="M0 -1L0.9 -0.5L0.9 0.5L0 1L-0.9 0.5L-0.9 -0.5Z" fill="#103241"></path></g><g transform="translate(450 154)"><path d="M0 -4L3.5 -2L3.5 2L0 4L-3.5 2L-3.5 -2Z" fill="#103241"></path></g><g transform="translate(22 127)"><path d="M0 -5L4.3 -2.5L4.3 2.5L0 5L-4.3 2.5L-4.3 -2.5Z" fill="#103241"></path></g><g transform="translate(182 118)"><path d="M0 -1L0.9 -0.5L0.9 0.5L0 1L-0.9 0.5L-0.9 -0.5Z" fill="#103241"></path></g><g transform="translate(421 41)"><path d="M0 -4L3.5 -2L3.5 2L0 4L-3.5 2L-3.5 -2Z" fill="#103241"></path></g><g transform="translate(346 19)"><path d="M0 -2L1.7 -1L1.7 1L0 2L-1.7 1L-1.7 -1Z" fill="#103241"></path></g><g transform="translate(717 175)"><path d="M0 -5L4.3 -2.5L4.3 2.5L0 5L-4.3 2.5L-4.3 -2.5Z" fill="#103241"></path></g><g transform="translate(284 29)"><path d="M0 -3L2.6 -1.5L2.6 1.5L0 3L-2.6 1.5L-2.6 -1.5Z" fill="#103241"></path></g><g transform="translate(720 82)"><path d="M0 0L0 0L0 0L0 0L0 0L0 0Z" fill="#103241"></path></g><g transform="translate(118 122)"><path d="M0 -4L3.5 -2L3.5 2L0 4L-3.5 2L-3.5 -2Z" fill="#103241"></path></g><g transform="translate(685 192)"><path d="M0 -2L1.7 -1L1.7 1L0 2L-1.7 1L-1.7 -1Z" fill="#103241"></path></g><g transform="translate(337 66)"><path d="M0 -6L5.2 -3L5.2 3L0 6L-5.2 3L-5.2 -3Z" fill="#103241"></path></g><g transform="translate(16 94)"><path d="M0 -5L4.3 -2.5L4.3 2.5L0 5L-4.3 2.5L-4.3 -2.5Z" fill="#103241"></path></g><g transform="translate(522 137)"><path d="M0 -5L4.3 -2.5L4.3 2.5L0 5L-4.3 2.5L-4.3 -2.5Z" fill="#103241"></path></g><g transform="translate(768 54)"><path d="M0 -1L0.9 -0.5L0.9 0.5L0 1L-0.9 0.5L-0.9 -0.5Z" fill="#103241"></path></g><g transform="translate(357 193)"><path d="M0 -3L2.6 -1.5L2.6 1.5L0 3L-2.6 1.5L-2.6 -1.5Z" fill="#103241"></path></g><g transform="translate(892 39)"><path d="M0 -3L2.6 -1.5L2.6 1.5L0 3L-2.6 1.5L-2.6 -1.5Z" fill="#103241"></path></g><g transform="translate(545 154)"><path d="M0 -4L3.5 -2L3.5 2L0 4L-3.5 2L-3.5 -2Z" fill="#103241"></path></g><g transform="translate(739 109)"><path d="M0 -5L4.3 -2.5L4.3 2.5L0 5L-4.3 2.5L-4.3 -2.5Z" fill="#103241"></path></g><g transform="translate(287 153)"><path d="M0 -5L4.3 -2.5L4.3 2.5L0 5L-4.3 2.5L-4.3 -2.5Z" fill="#103241"></path></g><g transform="translate(378 32)"><path d="M0 -6L5.2 -3L5.2 3L0 6L-5.2 3L-5.2 -3Z" fill="#103241"></path></g><g transform="translate(878 187)"><path d="M0 0L0 0L0 0L0 0L0 0L0 0Z" fill="#103241"></path></g><g transform="translate(571 32)"><path d="M0 -6L5.2 -3L5.2 3L0 6L-5.2 3L-5.2 -3Z" fill="#103241"></path></g><g transform="translate(761 163)"><path d="M0 -4L3.5 -2L3.5 2L0 4L-3.5 2L-3.5 -2Z" fill="#103241"></path></g><g transform="translate(435 23)"><path d="M0 -6L5.2 -3L5.2 3L0 6L-5.2 3L-5.2 -3Z" fill="#103241"></path></g><g transform="translate(277 10)"><path d="M0 -4L3.5 -2L3.5 2L0 4L-3.5 2L-3.5 -2Z" fill="#103241"></path></g><g transform="translate(205 127)"><path d="M0 -3L2.6 -1.5L2.6 1.5L0 3L-2.6 1.5L-2.6 -1.5Z" fill="#103241"></path></g><g transform="translate(139 80)"><path d="M0 -1L0.9 -0.5L0.9 0.5L0 1L-0.9 0.5L-0.9 -0.5Z" fill="#103241"></path></g><g transform="translate(560 196)"><path d="M0 -1L0.9 -0.5L0.9 0.5L0 1L-0.9 0.5L-0.9 -0.5Z" fill="#103241"></path></g><g transform="translate(451 181)"><path d="M0 -4L3.5 -2L3.5 2L0 4L-3.5 2L-3.5 -2Z" fill="#103241"></path></g><g transform="translate(7 17)"><path d="M0 0L0 0L0 0L0 0L0 0L0 0Z" fill="#103241"></path></g><g transform="translate(692 149)"><path d="M0 -4L3.5 -2L3.5 2L0 4L-3.5 2L-3.5 -2Z" fill="#103241"></path></g><g transform="translate(328 172)"><path d="M0 0L0 0L0 0L0 0L0 0L0 0Z" fill="#103241"></path></g><g transform="translate(461 46)"><path d="M0 -6L5.2 -3L5.2 3L0 6L-5.2 3L-5.2 -3Z" fill="#103241"></path></g><g transform="translate(683 135)"><path d="M0 -2L1.7 -1L1.7 1L0 2L-1.7 1L-1.7 -1Z" fill="#103241"></path></g><g transform="translate(305 144)"><path d="M0 -3L2.6 -1.5L2.6 1.5L0 3L-2.6 1.5L-2.6 -1.5Z" fill="#103241"></path></g><g transform="translate(30 60)"><path d="M0 0L0 0L0 0L0 0L0 0L0 0Z" fill="#103241"></path></g><g transform="translate(349 96)"><path d="M0 -1L0.9 -0.5L0.9 0.5L0 1L-0.9 0.5L-0.9 -0.5Z" fill="#103241"></path></g><g transform="translate(577 13)"><path d="M0 -3L2.6 -1.5L2.6 1.5L0 3L-2.6 1.5L-2.6 -1.5Z" fill="#103241"></path></g><g transform="translate(413 105)"><path d="M0 -5L4.3 -2.5L4.3 2.5L0 5L-4.3 2.5L-4.3 -2.5Z" fill="#103241"></path></g><g transform="translate(777 32)"><path d="M0 -4L3.5 -2L3.5 2L0 4L-3.5 2L-3.5 -2Z" fill="#103241"></path></g><g transform="translate(574 104)"><path d="M0 0L0 0L0 0L0 0L0 0L0 0Z" fill="#103241"></path></g><g transform="translate(39 92)"><path d="M0 -3L2.6 -1.5L2.6 1.5L0 3L-2.6 1.5L-2.6 -1.5Z" fill="#103241"></path></g><g transform="translate(70 143)"><path d="M0 -4L3.5 -2L3.5 2L0 4L-3.5 2L-3.5 -2Z" fill="#103241"></path></g><g transform="translate(392 46)"><path d="M0 -4L3.5 -2L3.5 2L0 4L-3.5 2L-3.5 -2Z" fill="#103241"></path></g><g transform="translate(320 47)"><path d="M0 -3L2.6 -1.5L2.6 1.5L0 3L-2.6 1.5L-2.6 -1.5Z" fill="#103241"></path></g><g transform="translate(46 124)"><path d="M0 -6L5.2 -3L5.2 3L0 6L-5.2 3L-5.2 -3Z" fill="#103241"></path></g><g transform="translate(511 51)"><path d="M0 -6L5.2 -3L5.2 3L0 6L-5.2 3L-5.2 -3Z" fill="#103241"></path></g><g transform="translate(259 104)"><path d="M0 -6L5.2 -3L5.2 3L0 6L-5.2 3L-5.2 -3Z" fill="#103241"></path></g><g transform="translate(594 66)"><path d="M0 -1L0.9 -0.5L0.9 0.5L0 1L-0.9 0.5L-0.9 -0.5Z" fill="#103241"></path></g><g transform="translate(435 99)"><path d="M0 -4L3.5 -2L3.5 2L0 4L-3.5 2L-3.5 -2Z" fill="#103241"></path></g><g transform="translate(505 148)"><path d="M0 -1L0.9 -0.5L0.9 0.5L0 1L-0.9 0.5L-0.9 -0.5Z" fill="#103241"></path></g><g transform="translate(557 103)"><path d="M0 -1L0.9 -0.5L0.9 0.5L0 1L-0.9 0.5L-0.9 -0.5Z" fill="#103241"></path></g><g transform="translate(605 5)"><path d="M0 -2L1.7 -1L1.7 1L0 2L-1.7 1L-1.7 -1Z" fill="#103241"></path></g><g transform="translate(826 82)"><path d="M0 -2L1.7 -1L1.7 1L0 2L-1.7 1L-1.7 -1Z" fill="#103241"></path></g><g transform="translate(757 70)"><path d="M0 -5L4.3 -2.5L4.3 2.5L0 5L-4.3 2.5L-4.3 -2.5Z" fill="#103241"></path></g><g transform="translate(698 11)"><path d="M0 -1L0.9 -0.5L0.9 0.5L0 1L-0.9 0.5L-0.9 -0.5Z" fill="#103241"></path></g><g transform="translate(113 41)"><path d="M0 -6L5.2 -3L5.2 3L0 6L-5.2 3L-5.2 -3Z" fill="#103241"></path></g><g transform="translate(14 112)"><path d="M0 0L0 0L0 0L0 0L0 0L0 0Z" fill="#103241"></path></g><g transform="translate(246 96)"><path d="M0 -5L4.3 -2.5L4.3 2.5L0 5L-4.3 2.5L-4.3 -2.5Z" fill="#103241"></path></g><g transform="translate(776 123)"><path d="M0 0L0 0L0 0L0 0L0 0L0 0Z" fill="#103241"></path></g><g transform="translate(586 131)"><path d="M0 -1L0.9 -0.5L0.9 0.5L0 1L-0.9 0.5L-0.9 -0.5Z" fill="#103241"></path></g><g transform="translate(859 193)"><path d="M0 0L0 0L0 0L0 0L0 0L0 0Z" fill="#103241"></path></g><g transform="translate(73 67)"><path d="M0 -4L3.5 -2L3.5 2L0 4L-3.5 2L-3.5 -2Z" fill="#103241"></path></g><g transform="translate(219 48)"><path d="M0 -2L1.7 -1L1.7 1L0 2L-1.7 1L-1.7 -1Z" fill="#103241"></path></g><g transform="translate(712 142)"><path d="M0 -1L0.9 -0.5L0.9 0.5L0 1L-0.9 0.5L-0.9 -0.5Z" fill="#103241"></path></g><g transform="translate(643 33)"><path d="M0 -1L0.9 -0.5L0.9 0.5L0 1L-0.9 0.5L-0.9 -0.5Z" fill="#103241"></path></g><g transform="translate(569 178)"><path d="M0 -4L3.5 -2L3.5 2L0 4L-3.5 2L-3.5 -2Z" fill="#103241"></path></g><g transform="translate(45 1)"><path d="M0 -2L1.7 -1L1.7 1L0 2L-1.7 1L-1.7 -1Z" fill="#103241"></path></g><g transform="translate(618 123)"><path d="M0 -3L2.6 -1.5L2.6 1.5L0 3L-2.6 1.5L-2.6 -1.5Z" fill="#103241"></path></g><g transform="translate(146 136)"><path d="M0 -4L3.5 -2L3.5 2L0 4L-3.5 2L-3.5 -2Z" fill="#103241"></path></g><g transform="translate(572 121)"><path d="M0 -3L2.6 -1.5L2.6 1.5L0 3L-2.6 1.5L-2.6 -1.5Z" fill="#103241"></path></g><g transform="translate(431 192)"><path d="M0 -5L4.3 -2.5L4.3 2.5L0 5L-4.3 2.5L-4.3 -2.5Z" fill="#103241"></path></g><g transform="translate(732 42)"><path d="M0 0L0 0L0 0L0 0L0 0L0 0Z" fill="#103241"></path></g><g transform="translate(422 167)"><path d="M0 -5L4.3 -2.5L4.3 2.5L0 5L-4.3 2.5L-4.3 -2.5Z" fill="#103241"></path></g><g transform="translate(76 182)"><path d="M0 0L0 0L0 0L0 0L0 0L0 0Z" fill="#103241"></path></g></g></svg>